<?xml version="1.0" standalone="no"?>
<!DOCTYPE svg PUBLIC "-//W3C//DTD SVG 20010904//EN"
 "http://www.w3.org/TR/2001/REC-SVG-20010904/DTD/svg10.dtd">
<svg version="1.0" xmlns="http://www.w3.org/2000/svg"
 width="626.000000pt" height="626.000000pt" viewBox="0 0 626.000000 626.000000"
 preserveAspectRatio="xMidYMid meet">

<g transform="translate(0.000000,626.000000) scale(0.100000,-0.100000)"
fill="#000000" stroke="none">
<path d="M1455 5635 c-105 -57 -135 -169 -71 -265 23 -35 24 -40 10 -54 -8 -9
-22 -16 -30 -16 -11 0 -14 -22 -14 -115 0 -115 0 -115 24 -115 23 0 41 -22 29
-34 -4 -3 -30 -6 -60 -6 l-53 0 0 -749 0 -748 21 -27 c12 -15 32 -32 45 -36
14 -6 24 -18 24 -30 0 -17 -7 -20 -40 -20 l-40 0 0 -55 0 -55 235 0 235 0 0
54 0 55 -47 3 c-55 3 -73 31 -30 47 13 5 34 22 46 37 l21 27 0 748 0 748 -57
3 c-46 2 -59 7 -61 21 -3 13 3 17 28 17 l31 0 -3 117 c-3 113 -4 116 -25 118
-32 2 -38 12 -24 37 7 13 21 39 32 58 57 104 -19 235 -142 246 -39 4 -63 1
-84 -11z m187 -889 c15 -10 37 -39 50 -64 22 -45 23 -57 25 -342 l3 -295 -38
42 c-20 23 -100 113 -177 200 -77 87 -148 167 -157 177 -21 23 -24 117 -7 179
13 48 62 104 103 117 48 15 167 6 198 -14z m-14 -799 c92 -105 92 -105 91
-159 0 -57 -18 -124 -33 -122 -5 1 -87 91 -182 200 l-174 198 0 113 0 113 103
-118 c56 -66 144 -167 195 -225z m-173 -227 l119 -135 -63 -3 c-116 -6 -171
57 -179 202 -2 45 -2 79 0 76 3 -3 59 -66 123 -140z"/>
<path d="M3772 5495 c-24 -19 -72 -44 -108 -55 -61 -18 -93 -20 -418 -20 -385
0 -445 -7 -539 -57 -65 -35 -144 -113 -180 -181 -42 -77 -57 -166 -57 -340 l0
-154 38 7 c46 7 85 -6 117 -41 22 -24 25 -36 25 -103 0 -47 5 -82 12 -89 17
-17 55 -15 62 4 3 9 6 81 6 160 l0 144 33 0 c76 1 166 73 188 153 l10 37 365
0 366 0 63 30 c152 72 225 246 171 406 -17 53 -79 135 -99 133 -7 0 -31 -16
-55 -34z"/>
<path d="M2950 4805 c-10 -12 -10 -18 0 -30 10 -12 31 -15 99 -13 84 3 86 3
86 28 0 25 -2 25 -86 28 -68 2 -89 -1 -99 -13z"/>
<path d="M3430 4805 c-10 -12 -10 -18 0 -30 10 -12 31 -15 99 -13 84 3 86 3
86 28 0 25 -2 25 -86 28 -68 2 -89 -1 -99 -13z"/>
<path d="M3000 4580 c-24 -24 -25 -48 -4 -78 19 -27 64 -29 87 -4 24 26 21 68
-5 86 -30 21 -54 20 -78 -4z"/>
<path d="M3480 4580 c-24 -24 -25 -48 -4 -78 19 -27 64 -29 87 -4 24 26 21 68
-5 86 -30 21 -54 20 -78 -4z"/>
<path d="M2474 4407 c9 -66 37 -118 83 -156 21 -17 41 -31 45 -31 4 0 -2 21
-13 46 -11 25 -26 75 -33 112 -12 67 -12 67 -50 73 l-38 6 6 -50z"/>
<path d="M3137 4345 c-52 -52 -75 -63 -111 -49 -19 7 -21 35 -3 54 8 10 5 9
-13 -2 -56 -35 -24 -98 60 -118 88 -21 220 26 220 78 0 12 8 7 26 -16 32 -40
65 -57 126 -66 121 -18 228 70 149 123 -23 15 -24 15 -11 -6 11 -18 12 -24 1
-37 -25 -30 -60 -19 -120 39 -67 64 -102 71 -141 30 l-23 -24 -19 24 c-34 44
-76 34 -141 -30z"/>
<path d="M2938 3838 l-17 -26 -238 -4 c-266 -5 -290 -10 -378 -76 -62 -46
-129 -145 -151 -220 -35 -119 -14 -280 50 -380 51 -81 153 -156 239 -176 l27
-6 0 107 -1 108 -32 20 c-126 80 -126 305 1 386 27 17 60 29 79 29 l33 0 0
-190 0 -190 250 0 c220 0 250 -2 258 -16 5 -9 12 -13 14 -8 3 5 -19 86 -50
179 -55 170 -55 170 -61 330 -6 155 -6 159 -23 133z"/>
<path d="M3000 3768 c-14 -48 -5 -107 16 -115 8 -3 33 3 55 13 22 9 53 18 69
18 16 0 47 -9 69 -18 48 -22 66 -17 74 21 5 28 -5 109 -16 120 -3 3 -28 -7
-54 -23 -60 -35 -86 -35 -144 -1 -25 15 -49 27 -52 27 -3 0 -11 -19 -17 -42z"/>
<path d="M3300 3702 l0 -111 -65 -179 c-36 -99 -65 -182 -65 -186 0 -3 29 -6
65 -6 57 0 69 -3 90 -25 24 -23 25 -30 25 -143 0 -106 -2 -122 -21 -146 -21
-27 -22 -27 -128 -24 -58 2 -114 7 -124 12 -18 8 -18 3 -15 -100 2 -82 0 -109
-9 -110 -7 -1 -141 -2 -298 -3 -182 -1 -285 -5 -285 -11 0 -6 107 -10 301 -10
197 0 298 -3 294 -10 -4 -6 -115 -10 -301 -10 l-294 0 0 -25 0 -25 300 0 300
0 -3 -33 c-2 -19 -7 -39 -11 -45 -5 -9 -70 -12 -222 -12 l-215 0 6 -22 c8 -24
54 -91 67 -96 4 -2 8 -311 8 -687 l0 -683 31 -6 c40 -8 227 -8 257 0 l22 6 0
654 0 654 88 0 87 0 -3 -654 -2 -653 37 -7 c48 -8 231 -8 261 0 l22 6 0 679
c0 664 0 679 20 689 11 6 32 32 47 58 26 44 28 56 32 175 2 100 6 127 17 127
12 0 14 64 14 400 0 220 4 400 8 400 22 0 96 -65 123 -108 51 -80 61 -135 57
-300 -4 -163 -15 -204 -77 -274 l-31 -36 0 -131 c0 -72 3 -131 7 -131 4 0 35
19 70 42 116 75 203 195 238 328 21 80 21 387 -1 461 -54 184 -185 323 -365
386 -62 22 -97 27 -216 31 l-143 5 0 -111z"/>
<path d="M2975 935 c-47 -17 -102 -72 -111 -112 -3 -15 -7 -34 -10 -40 -2 -9
-23 -13 -59 -13 l-55 0 0 75 c0 59 -3 75 -14 75 -31 0 -46 -42 -46 -125 0 -44
-3 -90 -6 -102 l-6 -23 -829 0 -829 0 0 -50 0 -50 2120 0 2120 0 0 50 0 50
-724 0 -724 0 -6 28 c-2 15 -8 49 -11 77 -11 83 -46 130 -119 160 -73 31 -164
-1 -213 -74 -13 -19 -23 -47 -23 -62 l0 -29 -100 0 -100 0 0 75 c0 68 -2 75
-20 75 -10 0 -23 -8 -29 -17 -9 -17 -11 -17 -30 1 -22 20 -86 45 -116 45 -11
0 -38 -6 -60 -14z"/>
</g>
</svg>
